<svg xmlns="http://www.w3.org/2000/svg" viewBox="0 0 215.11 225"><defs><style>.cls-1{fill:#4344ec;}.cls-2{fill:#f8f9fb;}.cls-3{fill:#f9fafc;}.cls-4{fill:#1a92fe;}.cls-5{fill:#fff;}</style></defs><title>icon_note</title><g id="Layer_2" data-name="Layer 2"><g id="Layer_1-2" data-name="Layer 1"><path class="cls-1" d="M152,225H16c-.87-1.44-2.56-1.3-3.83-2C4.85,219.22.57,213.41.18,205c1.31-1.78.83-3.85.83-5.8Q1.06,112,1,24.84c0-2,.47-4-.82-5.82C1.26,8.66,7.89,3.22,17,0H97c0,11.12,0,22.23,0,33.35,0,1.94-.52,4,1.07,5.69a15.27,15.27,0,0,1,.8,2.33c3.14,16.15,15.65,27.73,31.9,28.65,10.78.6,21.62.48,32.43.22,4.36-.1,5.56,1,5.54,5.46-.19,40.77-.37,81.55,0,122.31C169,211.1,164.86,220.5,152,225ZM43,135.83a7.27,7.27,0,0,0,4.37-2.69c8.16-11.91,16.36-23.8,24.43-35.78,2-2.92.77-5.46-2-7.16-3.58-2.19-6.35-.74-8.5,2.37-4.7,6.84-9.35,13.72-14,20.59-5.28,7.77-5.28,7.77-12,.94-.46-.48-.94-.95-1.4-1.42-2.57-2.62-5.37-3.41-8.28-.68-3.06,2.86-2.63,5.86.11,8.69,4.21,4.36,8.47,8.68,12.71,13A6.51,6.51,0,0,0,43,135.83Zm-.63,58.43a5.83,5.83,0,0,0,5.11-2.56q12.11-17.64,24.15-35.32c1.78-2.62,1.36-5.12-1.13-7s-5.23-2.11-7.7.14a17.08,17.08,0,0,0-2.43,3.14c-3.93,5.75-7.82,11.53-11.76,17.28-2,3-3.79,7.89-6.4,8.43-3.4.71-5.49-4.36-8.19-6.88s-5.62-3.61-8.65-.58-2.22,5.91.5,8.67q6.11,6.22,12.18,12.5A6.09,6.09,0,0,0,42.34,194.26ZM72.71,35.84a6.12,6.12,0,0,0-11.25-2.2C57.19,40,52.91,46.3,48.56,52.58c-2.16,3.12-4,7.86-6.85,8.67-2.37.68-5.06-4.42-7.61-6.94-2.75-2.73-5.69-3.73-8.7-.82-3.22,3.1-2.17,6.17.71,9,3.77,3.75,7.41,7.64,11.17,11.41,4.49,4.48,7.51,4.23,11.24-1.14C56,62,63.36,51.17,70.76,40.34A9,9,0,0,0,72.71,35.84Z"/><path class="cls-1" d="M197,225c-1.28-3.55-2.58-7.1-3.85-10.67-.67-1.9-.53-2.9,2-3.1,10-.77,10.13-.76,6.86,8.79-.59,1.69-1.37,3.32-2.06,5Z"/><path class="cls-1" d="M98,0l.09,39c-1.59-1.66-1.06-3.75-1.07-5.69C97,22.23,97,11.12,97,0Z"/><path class="cls-2" d="M43,135.83a6.51,6.51,0,0,1-4.62-2.11c-4.24-4.35-8.5-8.67-12.71-13-2.74-2.83-3.17-5.83-.11-8.69,2.91-2.73,5.71-1.94,8.28.68.46.47.94.94,1.4,1.42,6.76,6.83,6.76,6.83,12-.94,4.66-6.87,9.31-13.75,14-20.59,2.15-3.11,4.92-4.56,8.5-2.37,2.78,1.7,4,4.24,2,7.16-8.07,12-16.27,23.87-24.43,35.78A7.27,7.27,0,0,1,43,135.83Z"/><path class="cls-1" d="M42.34,194.26A6.09,6.09,0,0,1,38,192.08q-6.06-6.29-12.18-12.5c-2.72-2.76-3.5-5.67-.5-8.67s5.81-2.07,8.65.58,4.79,7.59,8.19,6.88c2.61-.54,4.35-5.43,6.4-8.43,3.94-5.75,7.83-11.53,11.76-17.28a17.08,17.08,0,0,1,2.43-3.14c2.47-2.25,5.2-2,7.7-.14s2.91,4.38,1.13,7q-12,17.69-24.15,35.32A5.83,5.83,0,0,1,42.34,194.26Z"/><path class="cls-3" d="M72.71,35.84a9,9,0,0,1-1.95,4.5C63.36,51.17,56,62,48.52,72.8c-3.73,5.37-6.75,5.62-11.24,1.14-3.76-3.77-7.4-7.66-11.17-11.41-2.88-2.87-3.93-5.94-.71-9,3-2.91,6-1.91,8.7.82,2.55,2.52,5.24,7.62,7.61,6.94,2.88-.81,4.69-5.55,6.85-8.67C52.91,46.3,57.19,40,61.46,33.64a6.12,6.12,0,0,1,11.25,2.2Z"/><path class="cls-1" d="M.18,205C.12,198,0,191,0,184Q0,104.5,0,25c0-2,.12-4,.18-6,1.29,1.79.82,3.86.82,5.82q0,87.17,0,174.34C1,201.13,1.49,203.2.18,205Z"/><path class="cls-1" d="M183,173.06c-1.59-.58-.93-1.95-.93-3q-.06-33.59,0-67.18c0-1-.66-2.39.93-3,1.51,1.46,3.42,1,5.21,1,7.15,0,14.31.08,21.46,0,2.75,0,4.39.61,4.38,3.84q-.1,31.69,0,63.38c0,3.23-1.62,3.87-4.38,3.84-7.15-.09-14.3-.05-21.46,0C186.44,172,184.52,171.6,183,173.06Z"/><path class="cls-1" d="M165.05,55.94l-34.05,0-.92-.07c-10.2-2.27-16.77-8.65-17.28-18.54-.61-11.9-.14-23.85-.14-35.57L167.06,55Z"/><path class="cls-1" d="M188,69.1h21.05l.93.06c3.29.68,4.74,3.16,4.95,6.06.33,4.62.07,9.28.16,13.93,0,2-.92,2.58-2.72,2.58q-13.94,0-27.87,0c-2,0-2.52-1-2.49-2.8.06-4.65-.13-9.3.11-13.94.15-3,1.46-5.44,5-5.83Z"/><path class="cls-1" d="M215,181.32c-2.35,7.08-4.62,13.77-6.78,20.5a2,2,0,0,1-2.08,1.69c-.5,0-1,.07-1.5,0-5-.24-12.16,2.19-14.41-.8-4-5.27-5-12.75-7.1-19.38-.79-2.52,1.48-2,2.82-2C195.38,181.3,204.85,181.32,215,181.32Z"/><path class="cls-1" d="M183,173.06c1.51-1.46,3.43-1,5.21-1,7.16,0,14.31-.08,21.46,0,2.76,0,4.39-.61,4.38-3.84q-.1-31.69,0-63.38c0-3.23-1.63-3.87-4.38-3.84-7.15.09-14.31,0-21.46,0-1.79,0-3.7.42-5.21-1,9.79-.09,19.6-.12,29.39-.31,2.34,0,2.7.94,2.7,3q-.09,33.92,0,67.83c0,2-.35,3-2.69,3C202.61,173.18,192.81,173.15,183,173.06Z"/><path class="cls-1" d="M165.05,55.94l2-.95C167.24,57.1,165.75,55.67,165.05,55.94Z"/><path class="cls-4" d="M130.08,55.82l.92.07-.47.06Z"/><path class="cls-1" d="M188,69.1l-.93.05A1.12,1.12,0,0,1,188,69.1Z"/><path class="cls-1" d="M210,69.16l-.93-.06A1.08,1.08,0,0,1,210,69.16Z"/><rect class="cls-5" x="24.03" y="155" width="110" height="12" rx="2.35"/><rect class="cls-5" x="24.03" y="178" width="110" height="12" rx="2.35"/></g></g></svg>